<?xml version="1.0" encoding="UTF-8"?>
<svg xmlns="http://www.w3.org/2000/svg" xmlns:xlink="http://www.w3.org/1999/xlink" width="96px" height="96px" viewBox="0 0 96 96" version="1.1">
<g id="surface1">
<path style=" stroke:none;fill-rule:nonzero;fill:rgb(100%,100%,100%);fill-opacity:1;" d="M 5.945312 54.933594 C 5.945312 55.632812 6.375 56.234375 7.058594 56.234375 C 9.34375 56.234375 13.933594 52.3125 15.539062 52.3125 C 15.839844 52.3125 16.015625 52.503906 16.015625 52.757812 C 16.015625 54.027344 9.296875 56.015625 9.296875 60.285156 C 9.296875 61.109375 9.519531 61.855469 9.871094 62.316406 L 12.09375 62.316406 C 11.648438 61.730469 11.25 61.03125 11.25 59.699219 C 11.25 56.203125 16.363281 54.316406 16.363281 52.757812 C 16.363281 52.234375 15.980469 51.996094 15.554688 51.996094 C 14.078125 51.996094 10.425781 54.664062 8.28125 54.664062 C 7.742188 54.664062 7.265625 54.300781 7.265625 53.757812 C 7.265625 52.710938 9.042969 51.917969 9.964844 51.679688 C 14.171875 51.28125 17.109375 46.628906 17.109375 43.136719 C 17.109375 41.183594 16.21875 39.339844 13.886719 39.292969 C 16.171875 38.675781 17.394531 37.753906 17.394531 37.023438 L 16.140625 35.910156 C 16.140625 37.214844 14.410156 38.800781 11.996094 39.578125 C 8.597656 40.675781 6.058594 44.722656 6.058594 47.789062 C 6.058594 50.234375 7.089844 51.457031 8.804688 51.679688 C 7.203125 52.695312 5.945312 53.617188 5.945312 54.933594 Z M 7.710938 47.042969 C 7.710938 44.230469 10.140625 39.800781 12.710938 39.800781 C 14.839844 39.800781 15.410156 42.089844 15.410156 44.390625 C 15.410156 47.074219 13.710938 50.980469 10.789062 50.980469 C 8.488281 50.980469 7.710938 48.964844 7.710938 47.042969 Z M 7.710938 47.042969 "/>
<path style=" stroke:none;fill-rule:nonzero;fill:rgb(100%,100%,100%);fill-opacity:1;" d="M 18.585938 55.332031 L 20.175781 55.332031 L 20.175781 51.265625 C 20.175781 47.203125 21.175781 41.039062 26.207031 41.039062 C 27 41.039062 27.667969 41.261719 28.429688 41.691406 L 28.429688 39.613281 C 28.097656 39.453125 27.652344 39.292969 26.8125 39.292969 C 22.714844 39.292969 20.761719 43.898438 20.175781 47.28125 L 20.175781 39.453125 L 18.585938 39.453125 Z M 18.585938 55.332031 "/>
<path style=" stroke:none;fill-rule:nonzero;fill:rgb(100%,100%,100%);fill-opacity:1;" d="M 29.382812 52.21875 C 29.382812 54.078125 30.605469 55.488281 32.511719 55.488281 C 35.195312 55.488281 37.371094 53.757812 38.765625 51.457031 L 38.765625 55.332031 L 40.355469 55.332031 L 40.355469 43.960938 C 40.355469 40.546875 38.671875 39.292969 36.148438 39.292969 C 33.210938 39.292969 29.714844 41.597656 29.714844 44.089844 C 29.714844 44.851562 30.160156 45.421875 30.90625 45.421875 C 33.035156 45.421875 34.859375 42.277344 36.542969 42.277344 C 36.878906 42.277344 37.195312 42.46875 37.195312 42.804688 C 37.195312 44.214844 29.382812 46.945312 29.382812 52.21875 Z M 37.527344 42.820312 C 37.527344 42.375 37.179688 41.960938 36.558594 41.960938 C 34.894531 41.960938 33.480469 44.214844 32.257812 44.214844 C 31.667969 44.214844 31.398438 43.597656 31.398438 43.007812 C 31.398438 41.089844 33.925781 39.613281 36.148438 39.613281 C 38.878906 39.613281 38.765625 42.246094 38.765625 43.597656 L 38.765625 48.679688 C 38.765625 50.234375 37.355469 54.664062 33.941406 54.664062 C 32.160156 54.664062 31.367188 53.378906 31.367188 51.820312 C 31.367188 46.789062 37.527344 44.421875 37.527344 42.820312 Z M 37.527344 42.820312 "/>
<path style=" stroke:none;fill-rule:nonzero;fill:rgb(100%,100%,100%);fill-opacity:1;" d="M 43.53125 55.332031 L 43.53125 39.847656 L 46.199219 39.847656 L 46.199219 39.453125 L 43.53125 39.453125 L 43.53125 36.945312 C 43.53125 34.894531 44.800781 32.863281 46.53125 32.863281 C 48.007812 32.863281 49.261719 34.230469 49.867188 35.722656 L 49.867188 32.769531 C 49.339844 32.339844 48.753906 32.226562 47.992188 32.226562 C 44.324219 32.226562 41.941406 35.785156 41.941406 39.785156 L 41.941406 55.332031 Z M 43.53125 55.332031 "/>
<path style=" stroke:none;fill-rule:nonzero;fill:rgb(100%,100%,100%);fill-opacity:1;" d="M 52.722656 55.332031 L 52.722656 39.847656 L 55.390625 39.847656 L 55.390625 39.453125 L 52.722656 39.453125 L 52.722656 36.945312 C 52.722656 34.894531 53.992188 32.863281 55.722656 32.863281 C 57.199219 32.863281 58.457031 34.230469 59.058594 35.722656 L 59.058594 32.769531 C 58.535156 32.339844 57.945312 32.226562 57.183594 32.226562 C 53.515625 32.226562 51.136719 35.785156 51.136719 39.785156 L 51.136719 55.332031 Z M 52.722656 55.332031 "/>
<path style=" stroke:none;fill-rule:nonzero;fill:rgb(100%,100%,100%);fill-opacity:1;" d="M 62.074219 55.332031 L 62.074219 39.453125 L 60.328125 39.453125 L 60.328125 55.332031 Z M 61.867188 35.707031 C 60.40625 35.707031 59.4375 37.914062 60.882812 37.914062 C 62.394531 37.914062 63.328125 35.707031 61.867188 35.707031 Z M 61.867188 35.707031 "/>
<path style=" stroke:none;fill-rule:nonzero;fill:rgb(100%,100%,100%);fill-opacity:1;" d="M 63.34375 49.21875 C 63.34375 52.296875 64.710938 55.488281 68.394531 55.488281 C 73.285156 55.488281 74.378906 51.757812 74.378906 50.21875 L 74.046875 50.21875 C 74.046875 51.855469 71.902344 54.425781 69.363281 54.425781 C 66.347656 54.425781 65.171875 51.074219 65.171875 48.472656 C 65.171875 44.484375 68.109375 39.5625 71.09375 39.5625 C 72.730469 39.5625 73.269531 40.882812 73.269531 41.945312 C 73.269531 42.753906 72.792969 43.46875 72.792969 43.46875 L 74.414062 44.453125 C 74.414062 44.453125 74.875 43.820312 74.875 42.597656 C 74.875 41.136719 73.761719 39.292969 71.300781 39.292969 C 66.695312 39.292969 63.34375 44.898438 63.34375 49.21875 Z M 63.34375 49.21875 "/>
<path style=" stroke:none;fill-rule:nonzero;fill:rgb(100%,100%,100%);fill-opacity:1;" d="M 76.144531 55.488281 L 76.492188 55.488281 L 82.445312 32.226562 L 82.097656 32.226562 Z M 76.144531 55.488281 "/>
<path style=" stroke:none;fill-rule:nonzero;fill:rgb(100%,100%,100%);fill-opacity:1;" d="M 84.035156 34.640625 L 84.035156 35.246094 C 84.191406 35.339844 84.429688 35.417969 84.734375 35.417969 C 85.242188 35.417969 85.480469 35.054688 85.988281 35.054688 C 86.289062 35.054688 86.542969 35.132812 86.828125 35.261719 C 86.449219 35.371094 86.082031 35.4375 85.71875 35.800781 C 85.445312 36.070312 85.414062 36.246094 85.160156 36.5 C 84.957031 36.707031 84.734375 36.863281 84.429688 36.863281 L 84.859375 37.292969 C 85.035156 37.246094 85.257812 37.152344 85.480469 36.929688 C 85.84375 36.5625 85.75 36.132812 86.097656 35.785156 C 86.320312 35.5625 86.542969 35.4375 86.84375 35.324219 C 86.652344 35.691406 86.433594 35.992188 86.433594 36.5 C 86.433594 36.863281 86.542969 37.023438 86.542969 37.386719 C 86.542969 37.675781 86.496094 37.945312 86.289062 38.167969 L 86.890625 38.167969 C 86.988281 38.007812 87.066406 37.769531 87.066406 37.46875 C 87.066406 36.960938 86.703125 36.722656 86.703125 36.214844 C 86.703125 35.910156 86.78125 35.640625 86.925781 35.339844 C 87.019531 35.753906 87.097656 36.117188 87.449219 36.484375 C 87.703125 36.738281 87.910156 36.769531 88.164062 37.023438 C 88.367188 37.230469 88.511719 37.453125 88.527344 37.753906 L 88.957031 37.324219 C 88.910156 37.152344 88.796875 36.929688 88.589844 36.722656 C 88.226562 36.355469 87.796875 36.453125 87.449219 36.085938 C 87.242188 35.863281 87.113281 35.640625 86.988281 35.339844 C 87.351562 35.546875 87.65625 35.753906 88.148438 35.753906 C 88.511719 35.753906 88.671875 35.640625 89.035156 35.640625 C 89.320312 35.640625 89.589844 35.691406 89.8125 35.894531 L 89.8125 35.292969 C 89.65625 35.195312 89.417969 35.117188 89.117188 35.117188 C 88.605469 35.117188 88.367188 35.484375 87.859375 35.484375 C 87.558594 35.484375 87.304688 35.402344 87.019531 35.277344 C 87.417969 35.164062 87.78125 35.101562 88.128906 34.753906 C 88.382812 34.5 88.417969 34.292969 88.671875 34.039062 C 88.875 33.832031 89.097656 33.6875 89.402344 33.671875 L 88.972656 33.246094 C 88.796875 33.292969 88.574219 33.402344 88.367188 33.609375 C 88.003906 33.976562 88.097656 34.402344 87.734375 34.753906 C 87.511719 34.960938 87.289062 35.085938 86.988281 35.214844 C 87.195312 34.847656 87.402344 34.546875 87.402344 34.054688 C 87.402344 33.6875 87.289062 33.53125 87.289062 33.164062 C 87.289062 32.878906 87.335938 32.609375 87.542969 32.386719 L 86.941406 32.386719 C 86.84375 32.546875 86.765625 32.785156 86.765625 33.085938 C 86.765625 33.59375 87.128906 33.832031 87.128906 34.339844 C 87.128906 34.625 87.050781 34.878906 86.925781 35.164062 C 86.8125 34.785156 86.75 34.417969 86.398438 34.070312 C 86.128906 33.800781 85.957031 33.769531 85.703125 33.515625 C 85.496094 33.308594 85.335938 33.085938 85.335938 32.785156 L 84.90625 33.210938 C 84.957031 33.386719 85.050781 33.609375 85.273438 33.832031 C 85.636719 34.195312 86.066406 34.101562 86.414062 34.449219 C 86.636719 34.671875 86.765625 34.894531 86.875 35.195312 C 86.511719 35.007812 86.210938 34.785156 85.703125 34.785156 C 85.335938 34.785156 85.175781 34.894531 84.8125 34.894531 C 84.527344 34.894531 84.257812 34.847656 84.035156 34.640625 Z M 84.035156 34.640625 "/>
<path style="fill:none;stroke-width:2.009599;stroke-linecap:butt;stroke-linejoin:miter;stroke:rgb(0%,0%,0%);stroke-opacity:1;stroke-miterlimit:4;" d="M 20.292995 157.57304 C 20.292995 165.395305 25.126979 172.162883 32.817409 172.162883 C 58.525417 172.162883 110.161159 128.085735 128.178737 128.085735 C 131.606472 128.085735 133.540065 130.19511 133.540065 133.051555 C 133.540065 147.333782 58.042018 169.658001 58.042018 217.734172 C 58.042018 227.006633 60.502956 235.400188 64.414089 240.585735 L 89.462917 240.585735 C 84.453151 233.993938 79.970729 226.127727 79.970729 211.09843 C 79.970729 171.811321 137.495143 150.585735 137.495143 133.051555 C 137.495143 127.162883 133.188503 124.482219 128.354518 124.482219 C 111.787136 124.482219 70.654323 154.496868 46.572292 154.496868 C 40.507839 154.496868 35.146511 150.409954 35.146511 144.301555 C 35.146511 132.524212 55.141628 123.559368 65.512722 120.922649 C 112.841823 116.484172 145.888698 64.10136 145.888698 24.814251 C 145.888698 2.797649 135.869167 -17.900593 109.58987 -18.427937 C 135.341823 -25.415242 149.140651 -35.74239 149.140651 -43.960163 L 134.990261 -56.440632 C 134.990261 -41.850788 115.522487 -23.965046 88.364284 -15.175984 C 50.131862 -2.871296 21.567409 42.699993 21.567409 77.153118 C 21.567409 104.662883 33.168972 118.417766 52.460964 120.922649 C 34.443386 132.34843 20.292995 142.719524 20.292995 157.57304 Z M 40.156276 68.759563 C 40.156276 37.118938 67.490261 -12.715046 96.406276 -12.715046 C 120.356472 -12.715046 126.816432 13.036907 126.816432 38.920696 C 126.816432 69.111126 107.656276 113.056438 74.829128 113.056438 C 48.901393 113.056438 40.156276 90.380657 40.156276 68.759563 Z M 162.500026 162.011516 L 180.341823 162.011516 L 180.341823 116.264446 C 180.341823 70.561321 191.591823 1.259563 248.237331 1.259563 C 257.202175 1.259563 264.672878 3.720501 273.242214 8.59843 L 273.242214 -14.824421 C 269.506862 -16.626179 264.497097 -18.427937 255.048854 -18.427937 C 208.950222 -18.427937 186.977565 33.383587 180.341823 71.440227 L 180.341823 -16.626179 L 162.500026 -16.626179 Z M 283.96487 126.987102 C 283.96487 147.861126 297.719753 163.769329 319.165065 163.769329 C 349.355495 163.769329 373.789089 144.301555 389.565456 118.417766 L 389.565456 162.011516 L 407.407253 162.011516 L 407.407253 34.086712 C 407.407253 -4.277546 388.466823 -18.427937 360.078151 -18.427937 C 327.031276 -18.427937 287.700222 7.499797 287.700222 35.536907 C 287.700222 44.106243 292.753932 50.522258 301.103542 50.522258 C 325.053737 50.522258 345.576198 15.146282 364.516628 15.146282 C 368.251979 15.146282 371.855495 17.299602 371.855495 21.034954 C 371.855495 36.987102 283.96487 67.66093 283.96487 126.987102 Z M 375.590847 21.210735 C 375.590847 16.244915 371.679714 11.586712 364.692409 11.586712 C 345.927761 11.586712 330.063503 36.987102 316.30862 36.987102 C 309.716823 36.987102 306.640651 29.999797 306.640651 23.408001 C 306.640651 1.786907 335.029323 -14.824421 360.078151 -14.824421 C 390.751979 -14.824421 389.565456 14.794719 389.565456 29.999797 L 389.565456 87.172649 C 389.565456 104.662883 373.613307 154.496868 335.205104 154.496868 C 315.253932 154.496868 306.289089 140.03886 306.289089 122.548626 C 306.289089 65.859172 375.590847 39.272258 375.590847 21.210735 Z M 443.090847 162.011516 L 443.090847 -12.187703 L 473.14944 -12.187703 L 473.14944 -16.626179 L 443.090847 -16.626179 L 443.090847 -44.83907 C 443.090847 -67.910359 457.417018 -90.761921 476.884792 -90.761921 C 493.49612 -90.761921 507.602565 -75.425007 514.414089 -58.637898 L 514.414089 -91.816609 C 508.525417 -96.650593 501.889675 -97.925007 493.320339 -97.925007 C 452.05569 -97.925007 425.24905 -57.890828 425.24905 -12.890828 L 425.24905 162.011516 Z M 546.538112 162.011516 L 546.538112 -12.187703 L 576.596706 -12.187703 L 576.596706 -16.626179 L 546.538112 -16.626179 L 546.538112 -44.83907 C 546.538112 -67.910359 560.820339 -90.761921 580.332057 -90.761921 C 596.89944 -90.761921 611.049831 -75.425007 617.817409 -58.637898 L 617.817409 -91.816609 C 611.928737 -96.650593 605.292995 -97.925007 596.723659 -97.925007 C 555.459011 -97.925007 528.696315 -57.890828 528.696315 -12.890828 L 528.696315 162.011516 Z M 651.74319 162.011516 L 651.74319 -16.626179 L 632.099636 -16.626179 L 632.099636 162.011516 Z M 649.414089 -58.813679 C 632.978542 -58.813679 622.080104 -33.940632 638.33987 -33.940632 C 655.302761 -33.940632 665.849636 -58.813679 649.414089 -58.813679 Z M 666.069362 93.237102 C 666.069362 127.909954 681.406276 163.769329 722.846706 163.769329 C 777.866237 163.769329 790.21487 121.801555 790.21487 104.487102 L 786.479518 104.487102 C 786.479518 122.900188 762.353542 151.860149 733.745143 151.860149 C 699.819362 151.860149 686.591823 114.111126 686.591823 84.843547 C 686.591823 39.975383 719.638698 -15.351765 753.212917 -15.351765 C 771.626003 -15.351765 777.690456 -0.542195 777.690456 11.41093 C 777.690456 20.50761 772.329128 28.549602 772.329128 28.549602 L 790.566432 39.623821 C 790.566432 39.623821 795.751979 32.460735 795.751979 18.749797 C 795.751979 2.314251 783.227565 -18.427937 755.542018 -18.427937 C 703.730495 -18.427937 666.069362 44.633587 666.069362 93.237102 Z M 810.034206 163.769329 L 813.945339 163.769329 L 880.917995 -97.925007 L 877.006862 -97.925007 Z M 898.803737 -70.766804 L 898.803737 -63.955281 C 900.605495 -62.900593 903.242214 -61.977742 906.669948 -61.977742 C 912.382839 -61.977742 915.063503 -66.108601 920.776393 -66.108601 C 924.116237 -66.108601 927.016628 -65.229695 930.268581 -63.779499 C 925.917995 -62.549031 921.831081 -61.80196 917.744167 -57.715046 C 914.667995 -54.638874 914.316432 -52.705281 911.503932 -49.848835 C 909.130886 -47.563679 906.669948 -45.761921 903.242214 -45.761921 L 908.076198 -40.927937 C 910.053737 -41.455281 912.55862 -42.553913 915.063503 -45.014851 C 919.150417 -49.101765 918.095729 -53.979695 922.006862 -57.890828 C 924.511745 -60.39571 927.016628 -61.80196 930.400417 -63.076374 C 928.291042 -58.98946 925.742214 -55.561726 925.742214 -49.848835 C 925.742214 -45.761921 927.016628 -43.960163 927.016628 -39.829304 C 927.016628 -36.665242 926.489284 -33.58907 924.116237 -31.128132 L 930.927761 -31.128132 C 932.026393 -32.885945 932.9053 -35.566609 932.9053 -38.950398 C 932.9053 -44.663288 928.818386 -47.387898 928.818386 -53.100788 C 928.818386 -56.440632 929.697292 -59.516804 931.279323 -62.900593 C 932.377956 -58.24239 933.256862 -54.155476 937.167995 -50.024617 C 940.068386 -47.168171 942.353542 -46.816609 945.253932 -43.960163 C 947.539089 -41.631062 949.165065 -39.126179 949.340847 -35.74239 L 954.174831 -40.576374 C 953.603542 -42.553913 952.417018 -45.014851 950.043972 -47.387898 C 945.957057 -51.474812 941.167018 -50.376179 937.167995 -54.463093 C 934.882839 -57.011921 933.432643 -59.516804 932.026393 -62.900593 C 936.113307 -60.571492 939.541042 -58.24239 945.078151 -58.24239 C 949.165065 -58.24239 950.966823 -59.516804 955.053737 -59.516804 C 958.30569 -59.516804 961.293972 -58.98946 963.8428 -56.616413 L 963.8428 -63.427937 C 962.041042 -64.52657 959.316432 -65.405476 955.976589 -65.405476 C 950.219753 -65.405476 947.539089 -61.274617 941.826198 -61.274617 C 938.442409 -61.274617 935.629909 -62.153523 932.377956 -63.603718 C 936.816432 -64.878132 940.947292 -65.581257 944.90237 -69.49239 C 947.71487 -72.348835 948.066432 -74.677937 950.966823 -77.534382 C 953.251979 -79.863484 955.756862 -81.48946 959.140651 -81.665242 L 954.350612 -86.499226 C 952.417018 -85.927937 949.86819 -84.697468 947.539089 -82.368367 C 943.452175 -78.237507 944.506862 -73.447468 940.419948 -69.49239 C 937.915065 -67.163288 935.410182 -65.713093 932.026393 -64.350788 C 934.355495 -68.437703 936.640651 -71.865437 936.640651 -77.358601 C 936.640651 -81.48946 935.410182 -83.247273 935.410182 -87.378132 C 935.410182 -90.58614 935.981472 -93.618367 938.266628 -96.123249 L 931.455104 -96.123249 C 930.400417 -94.365437 929.521511 -91.640828 929.521511 -88.257038 C 929.521511 -82.544148 933.65237 -79.863484 933.65237 -74.150593 C 933.65237 -70.942585 932.729518 -68.08614 931.279323 -64.878132 C 930.048854 -69.140828 929.345729 -73.227742 925.390651 -77.18282 C 922.358425 -80.215046 920.380886 -80.566609 917.568386 -83.423054 C 915.239284 -85.752156 913.437526 -88.257038 913.437526 -91.640828 L 908.603542 -86.850788 C 909.130886 -84.873249 910.229518 -82.368367 912.734401 -79.863484 C 916.821315 -75.77657 921.6553 -76.831257 925.566432 -72.876179 C 928.115261 -70.415242 929.521511 -67.910359 930.751979 -64.52657 C 926.665065 -66.635945 923.281276 -69.140828 917.568386 -69.140828 C 913.437526 -69.140828 911.679714 -67.910359 907.548854 -67.910359 C 904.340847 -67.910359 901.30862 -68.437703 898.803737 -70.766804 Z M 898.803737 -70.766804 " transform="matrix(0.0888889,0,0,0.0888889,4.141491,40.931008)"/>
</g>
</svg>
