<?xml version="1.0" encoding="UTF-8"?>
<svg xmlns="http://www.w3.org/2000/svg" xmlns:xlink="http://www.w3.org/1999/xlink" width="108px" height="108px" viewBox="0 0 108 108" version="1.1">
<g id="surface1">
<path style=" stroke:none;fill-rule:nonzero;fill:rgb(100%,100%,100%);fill-opacity:1;" d="M 6.691406 61.800781 C 6.691406 62.585938 7.171875 63.265625 7.941406 63.265625 C 10.511719 63.265625 15.675781 58.855469 17.480469 58.855469 C 17.820312 58.855469 18.015625 59.066406 18.015625 59.355469 C 18.015625 60.78125 10.460938 63.015625 10.460938 67.820312 C 10.460938 68.75 10.710938 69.589844 11.101562 70.105469 L 13.601562 70.105469 C 13.101562 69.445312 12.65625 68.660156 12.65625 67.160156 C 12.65625 63.230469 18.410156 61.105469 18.410156 59.355469 C 18.410156 58.765625 17.980469 58.496094 17.496094 58.496094 C 15.835938 58.496094 11.726562 61.496094 9.316406 61.496094 C 8.710938 61.496094 8.171875 61.085938 8.171875 60.480469 C 8.171875 59.300781 10.171875 58.40625 11.210938 58.140625 C 15.945312 57.691406 19.25 52.457031 19.25 48.527344 C 19.25 46.332031 18.25 44.257812 15.621094 44.207031 C 18.195312 43.507812 19.570312 42.472656 19.570312 41.652344 L 18.160156 40.402344 C 18.160156 41.867188 16.210938 43.652344 13.496094 44.527344 C 9.671875 45.761719 6.816406 50.316406 6.816406 53.761719 C 6.816406 56.511719 7.976562 57.890625 9.90625 58.140625 C 8.101562 59.28125 6.691406 60.316406 6.691406 61.800781 Z M 8.671875 52.921875 C 8.671875 49.761719 11.40625 44.777344 14.300781 44.777344 C 16.695312 44.777344 17.335938 47.347656 17.335938 49.941406 C 17.335938 52.957031 15.425781 57.351562 12.140625 57.351562 C 9.546875 57.351562 8.671875 55.085938 8.671875 52.921875 Z M 8.671875 52.921875 "/>
<path style=" stroke:none;fill-rule:nonzero;fill:rgb(100%,100%,100%);fill-opacity:1;" d="M 20.910156 62.246094 L 22.695312 62.246094 L 22.695312 57.675781 C 22.695312 53.101562 23.820312 46.171875 29.484375 46.171875 C 30.375 46.171875 31.128906 46.421875 31.984375 46.902344 L 31.984375 44.5625 C 31.609375 44.382812 31.109375 44.207031 30.164062 44.207031 C 25.554688 44.207031 23.355469 49.386719 22.695312 53.191406 L 22.695312 44.382812 L 20.910156 44.382812 Z M 20.910156 62.246094 "/>
<path style=" stroke:none;fill-rule:nonzero;fill:rgb(100%,100%,100%);fill-opacity:1;" d="M 33.054688 58.746094 C 33.054688 60.835938 34.429688 62.425781 36.574219 62.425781 C 39.59375 62.425781 42.039062 60.480469 43.613281 57.890625 L 43.613281 62.246094 L 45.398438 62.246094 L 45.398438 49.457031 C 45.398438 45.617188 43.503906 44.207031 40.664062 44.207031 C 37.359375 44.207031 33.429688 46.796875 33.429688 49.601562 C 33.429688 50.457031 33.929688 51.101562 34.769531 51.101562 C 37.164062 51.101562 39.21875 47.5625 41.113281 47.5625 C 41.488281 47.5625 41.84375 47.777344 41.84375 48.152344 C 41.84375 49.742188 33.054688 52.816406 33.054688 58.746094 Z M 42.21875 48.171875 C 42.21875 47.671875 41.828125 47.207031 41.128906 47.207031 C 39.253906 47.207031 37.664062 49.742188 36.289062 49.742188 C 35.628906 49.742188 35.324219 49.046875 35.324219 48.386719 C 35.324219 46.222656 38.164062 44.5625 40.664062 44.5625 C 43.738281 44.5625 43.613281 47.527344 43.613281 49.046875 L 43.613281 54.761719 C 43.613281 56.511719 42.023438 61.496094 38.183594 61.496094 C 36.183594 61.496094 35.289062 60.050781 35.289062 58.300781 C 35.289062 52.636719 42.21875 49.976562 42.21875 48.171875 Z M 42.21875 48.171875 "/>
<path style=" stroke:none;fill-rule:nonzero;fill:rgb(100%,100%,100%);fill-opacity:1;" d="M 48.972656 62.246094 L 48.972656 44.832031 L 51.972656 44.832031 L 51.972656 44.382812 L 48.972656 44.382812 L 48.972656 41.5625 C 48.972656 39.257812 50.398438 36.972656 52.347656 36.972656 C 54.007812 36.972656 55.421875 38.507812 56.097656 40.1875 L 56.097656 36.863281 C 55.507812 36.382812 54.847656 36.257812 53.992188 36.257812 C 49.863281 36.257812 47.183594 40.257812 47.183594 44.757812 L 47.183594 62.246094 Z M 48.972656 62.246094 "/>
<path style=" stroke:none;fill-rule:nonzero;fill:rgb(100%,100%,100%);fill-opacity:1;" d="M 59.3125 62.246094 L 59.3125 44.832031 L 62.3125 44.832031 L 62.3125 44.382812 L 59.3125 44.382812 L 59.3125 41.5625 C 59.3125 39.257812 60.742188 36.972656 62.691406 36.972656 C 64.351562 36.972656 65.761719 38.507812 66.441406 40.1875 L 66.441406 36.863281 C 65.851562 36.382812 65.191406 36.257812 64.332031 36.257812 C 60.207031 36.257812 57.527344 40.257812 57.527344 44.757812 L 57.527344 62.246094 Z M 59.3125 62.246094 "/>
<path style=" stroke:none;fill-rule:nonzero;fill:rgb(100%,100%,100%);fill-opacity:1;" d="M 69.835938 62.246094 L 69.835938 44.382812 L 67.871094 44.382812 L 67.871094 62.246094 Z M 69.601562 40.167969 C 67.957031 40.167969 66.871094 42.652344 68.496094 42.652344 C 70.191406 42.652344 71.246094 40.167969 69.601562 40.167969 Z M 69.601562 40.167969 "/>
<path style=" stroke:none;fill-rule:nonzero;fill:rgb(100%,100%,100%);fill-opacity:1;" d="M 71.261719 55.371094 C 71.261719 58.835938 72.800781 62.425781 76.945312 62.425781 C 82.445312 62.425781 83.679688 58.226562 83.679688 56.496094 L 83.304688 56.496094 C 83.304688 58.335938 80.890625 61.230469 78.035156 61.230469 C 74.640625 61.230469 73.316406 57.460938 73.316406 54.53125 C 73.316406 50.046875 76.621094 44.507812 79.980469 44.507812 C 81.820312 44.507812 82.429688 45.992188 82.429688 47.1875 C 82.429688 48.101562 81.890625 48.902344 81.890625 48.902344 L 83.714844 50.011719 C 83.714844 50.011719 84.230469 49.296875 84.230469 47.921875 C 84.230469 46.277344 82.980469 44.207031 80.214844 44.207031 C 75.03125 44.207031 71.261719 50.511719 71.261719 55.371094 Z M 71.261719 55.371094 "/>
<path style=" stroke:none;fill-rule:nonzero;fill:rgb(100%,100%,100%);fill-opacity:1;" d="M 85.660156 62.425781 L 86.054688 62.425781 L 92.753906 36.257812 L 92.359375 36.257812 Z M 85.660156 62.425781 "/>
<path style=" stroke:none;fill-rule:nonzero;fill:rgb(100%,100%,100%);fill-opacity:1;" d="M 94.539062 38.972656 L 94.539062 39.652344 C 94.71875 39.757812 94.984375 39.847656 95.324219 39.847656 C 95.894531 39.847656 96.164062 39.4375 96.734375 39.4375 C 97.074219 39.4375 97.359375 39.527344 97.683594 39.667969 C 97.253906 39.792969 96.84375 39.863281 96.433594 40.277344 C 96.128906 40.578125 96.09375 40.777344 95.808594 41.0625 C 95.574219 41.292969 95.324219 41.472656 94.984375 41.472656 L 95.46875 41.957031 C 95.664062 41.902344 95.914062 41.792969 96.164062 41.542969 C 96.574219 41.132812 96.46875 40.652344 96.859375 40.257812 C 97.109375 40.007812 97.359375 39.863281 97.699219 39.738281 C 97.484375 40.152344 97.234375 40.488281 97.234375 41.0625 C 97.234375 41.472656 97.359375 41.652344 97.359375 42.0625 C 97.359375 42.382812 97.308594 42.6875 97.074219 42.9375 L 97.753906 42.9375 C 97.859375 42.757812 97.949219 42.492188 97.949219 42.152344 C 97.949219 41.578125 97.539062 41.3125 97.539062 40.738281 C 97.539062 40.402344 97.628906 40.097656 97.789062 39.757812 C 97.898438 40.222656 97.984375 40.632812 98.378906 41.042969 C 98.664062 41.328125 98.898438 41.367188 99.183594 41.652344 C 99.414062 41.882812 99.574219 42.132812 99.59375 42.472656 L 100.074219 41.992188 C 100.023438 41.792969 99.898438 41.542969 99.664062 41.3125 C 99.253906 40.902344 98.773438 41.007812 98.378906 40.597656 C 98.148438 40.347656 98.003906 40.097656 97.859375 39.757812 C 98.273438 39.988281 98.613281 40.222656 99.164062 40.222656 C 99.574219 40.222656 99.753906 40.097656 100.164062 40.097656 C 100.488281 40.097656 100.789062 40.152344 101.039062 40.382812 L 101.039062 39.703125 C 100.863281 39.597656 100.59375 39.507812 100.253906 39.507812 C 99.683594 39.507812 99.414062 39.917969 98.84375 39.917969 C 98.503906 39.917969 98.21875 39.828125 97.898438 39.6875 C 98.34375 39.5625 98.753906 39.488281 99.148438 39.097656 C 99.433594 38.8125 99.46875 38.578125 99.753906 38.292969 C 99.988281 38.0625 100.238281 37.898438 100.574219 37.882812 L 100.09375 37.398438 C 99.898438 37.453125 99.648438 37.578125 99.414062 37.8125 C 99.003906 38.222656 99.113281 38.703125 98.699219 39.097656 C 98.449219 39.328125 98.199219 39.472656 97.859375 39.613281 C 98.09375 39.203125 98.324219 38.863281 98.324219 38.3125 C 98.324219 37.898438 98.199219 37.722656 98.199219 37.308594 C 98.199219 36.988281 98.253906 36.683594 98.484375 36.433594 L 97.808594 36.433594 C 97.699219 36.613281 97.609375 36.882812 97.609375 37.222656 C 97.609375 37.792969 98.023438 38.0625 98.023438 38.632812 C 98.023438 38.953125 97.933594 39.238281 97.789062 39.5625 C 97.664062 39.132812 97.59375 38.722656 97.199219 38.328125 C 96.894531 38.023438 96.699219 37.988281 96.414062 37.703125 C 96.183594 37.472656 96.003906 37.222656 96.003906 36.882812 L 95.519531 37.363281 C 95.574219 37.5625 95.683594 37.8125 95.933594 38.0625 C 96.34375 38.472656 96.824219 38.363281 97.21875 38.757812 C 97.46875 39.007812 97.609375 39.257812 97.734375 39.597656 C 97.324219 39.382812 96.984375 39.132812 96.414062 39.132812 C 96.003906 39.132812 95.824219 39.257812 95.414062 39.257812 C 95.09375 39.257812 94.789062 39.203125 94.539062 38.972656 Z M 94.539062 38.972656 "/>
<path style="fill:none;stroke-width:2.009599;stroke-linecap:butt;stroke-linejoin:miter;stroke:rgb(0%,0%,0%);stroke-opacity:1;stroke-miterlimit:4;" d="M 20.283229 157.533977 C 20.283229 165.38554 25.126979 172.143352 32.822292 172.143352 C 58.525417 172.143352 110.166042 128.080852 128.173854 128.080852 C 131.611354 128.080852 133.564479 130.190227 133.564479 133.04179 C 133.564479 147.338665 58.017604 169.682415 58.017604 217.72929 C 58.017604 227.026165 60.517604 235.38554 64.423854 240.580852 L 89.462917 240.580852 C 84.462917 234.018352 79.970729 226.127727 79.970729 211.088665 C 79.970729 171.830852 137.470729 150.580852 137.470729 133.04179 C 137.470729 127.143352 133.212917 124.487102 128.369167 124.487102 C 111.806667 124.487102 70.673854 154.487102 46.572292 154.487102 C 40.478542 154.487102 35.126979 150.38554 35.126979 144.29179 C 35.126979 132.533977 55.126979 123.588665 65.517604 120.932415 C 112.822292 116.47929 145.908229 64.096477 145.908229 24.799602 C 145.908229 2.807415 135.869167 -17.89571 109.619167 -18.403523 C 135.361354 -25.39571 149.111354 -35.747273 149.111354 -43.98946 L 135.009792 -56.450398 C 135.009792 -41.841023 115.556667 -23.950398 88.369167 -15.200398 C 50.126979 -2.89571 21.572292 42.690227 21.572292 77.143352 C 21.572292 104.643352 33.173854 118.432415 52.470729 120.932415 C 34.423854 132.338665 20.283229 142.72929 20.283229 157.533977 Z M 40.126979 68.744915 C 40.126979 37.143352 67.470729 -12.700398 96.416042 -12.700398 C 120.322292 -12.700398 126.806667 13.04179 126.806667 38.940227 C 126.806667 69.096477 107.666042 113.080852 74.814479 113.080852 C 48.916042 113.080852 40.126979 90.38554 40.126979 68.744915 Z M 162.509792 161.987102 L 180.361354 161.987102 L 180.361354 116.244915 C 180.361354 70.54179 191.611354 1.244915 248.251979 1.244915 C 257.197292 1.244915 264.697292 3.744915 273.251979 8.588665 L 273.251979 -14.848835 C 269.501979 -16.64571 264.501979 -18.403523 255.048854 -18.403523 C 208.955104 -18.403523 186.962917 33.393352 180.361354 71.440227 L 180.361354 -16.64571 L 162.509792 -16.64571 Z M 283.955104 126.987102 C 283.955104 147.88554 297.705104 163.783977 319.150417 163.783977 C 349.345729 163.783977 373.798854 144.29179 389.541042 118.432415 L 389.541042 161.987102 L 407.392604 161.987102 L 407.392604 34.096477 C 407.392604 -4.30196 388.447292 -18.403523 360.087917 -18.403523 C 327.001979 -18.403523 287.705104 7.494915 287.705104 35.54179 C 287.705104 44.13554 292.744167 50.54179 301.103542 50.54179 C 325.048854 50.54179 345.595729 15.151165 364.501979 15.151165 C 368.251979 15.151165 371.845729 17.299602 371.845729 21.049602 C 371.845729 36.987102 283.955104 67.690227 283.955104 126.987102 Z M 375.595729 21.205852 C 375.595729 16.244915 371.689479 11.596477 364.697292 11.596477 C 345.947292 11.596477 330.048854 36.987102 316.298854 36.987102 C 309.697292 36.987102 306.650417 29.994915 306.650417 23.393352 C 306.650417 1.79179 335.048854 -14.848835 360.087917 -14.848835 C 390.791042 -14.848835 389.541042 14.799602 389.541042 29.994915 L 389.541042 87.143352 C 389.541042 104.643352 373.642604 154.487102 335.205104 154.487102 C 315.244167 154.487102 306.298854 140.033977 306.298854 122.533977 C 306.298854 65.893352 375.595729 39.29179 375.595729 21.205852 Z M 443.095729 161.987102 L 443.095729 -12.192585 L 473.134792 -12.192585 L 473.134792 -16.64571 L 443.095729 -16.64571 L 443.095729 -44.848835 C 443.095729 -67.934773 457.392604 -90.786335 476.884792 -90.786335 C 493.486354 -90.786335 507.587917 -75.434773 514.423854 -58.637898 L 514.423854 -91.80196 C 508.525417 -96.64571 501.884792 -97.934773 493.291042 -97.934773 C 452.041042 -97.934773 425.283229 -57.89571 425.283229 -12.89571 L 425.283229 161.987102 Z M 546.533229 161.987102 L 546.533229 -12.192585 L 576.572292 -12.192585 L 576.572292 -16.64571 L 546.533229 -16.64571 L 546.533229 -44.848835 C 546.533229 -67.934773 560.830104 -90.786335 580.322292 -90.786335 C 596.884792 -90.786335 611.025417 -75.434773 617.822292 -58.637898 L 617.822292 -91.80196 C 611.962917 -96.64571 605.322292 -97.934773 596.728542 -97.934773 C 555.478542 -97.934773 528.681667 -57.89571 528.681667 -12.89571 L 528.681667 161.987102 Z M 651.728542 161.987102 L 651.728542 -16.64571 L 632.119167 -16.64571 L 632.119167 161.987102 Z M 649.423854 -58.794148 C 632.978542 -58.794148 622.080104 -33.950398 638.369167 -33.950398 C 655.322292 -33.950398 665.869167 -58.794148 649.423854 -58.794148 Z M 666.064479 93.237102 C 666.064479 127.88554 681.416042 163.783977 722.822292 163.783977 C 777.861354 163.783977 790.205104 121.79179 790.205104 104.487102 L 786.455104 104.487102 C 786.455104 122.88554 762.353542 151.830852 733.720729 151.830852 C 699.814479 151.830852 686.572292 114.096477 686.572292 84.838665 C 686.572292 39.994915 719.658229 -15.356648 753.212917 -15.356648 C 771.650417 -15.356648 777.705104 -0.55196 777.705104 11.401165 C 777.705104 20.54179 772.314479 28.549602 772.314479 28.549602 L 790.556667 39.643352 C 790.556667 39.643352 795.751979 32.455852 795.751979 18.744915 C 795.751979 2.299602 783.212917 -18.403523 755.556667 -18.403523 C 703.720729 -18.403523 666.064479 44.643352 666.064479 93.237102 Z M 810.009792 163.783977 L 813.955104 163.783977 L 880.947292 -97.934773 L 877.001979 -97.934773 Z M 898.798854 -70.747273 L 898.798854 -63.950398 C 900.595729 -62.89571 903.251979 -61.997273 906.650417 -61.997273 C 912.353542 -61.997273 915.087917 -66.137898 920.791042 -66.137898 C 924.150417 -66.137898 927.001979 -65.200398 930.244167 -63.794148 C 925.947292 -62.544148 921.845729 -61.80196 917.744167 -57.700398 C 914.658229 -54.653523 914.306667 -52.700398 911.494167 -49.848835 C 909.150417 -47.544148 906.650417 -45.747273 903.251979 -45.747273 L 908.095729 -40.903523 C 910.048854 -41.450398 912.548854 -42.544148 915.087917 -45.005085 C 919.150417 -49.106648 918.095729 -53.950398 922.001979 -57.89571 C 924.541042 -60.434773 927.001979 -61.80196 930.400417 -63.091023 C 928.291042 -58.98946 925.751979 -55.591023 925.751979 -49.848835 C 925.751979 -45.747273 927.001979 -43.98946 927.001979 -39.848835 C 927.001979 -36.64571 926.494167 -33.598835 924.150417 -31.098835 L 930.947292 -31.098835 C 932.041042 -32.89571 932.900417 -35.55196 932.900417 -38.950398 C 932.900417 -44.653523 928.798854 -47.387898 928.798854 -53.091023 C 928.798854 -56.450398 929.697292 -59.497273 931.298854 -62.89571 C 932.392604 -58.247273 933.251979 -54.14571 937.197292 -50.044148 C 940.048854 -47.153523 942.353542 -46.80196 945.244167 -43.98946 C 947.548854 -41.606648 949.189479 -39.14571 949.345729 -35.747273 L 954.189479 -40.591023 C 953.603542 -42.544148 952.392604 -45.005085 950.048854 -47.387898 C 945.947292 -51.48946 941.142604 -50.39571 937.197292 -54.497273 C 934.853542 -56.997273 933.447292 -59.497273 932.041042 -62.89571 C 936.142604 -60.591023 939.541042 -58.247273 945.087917 -58.247273 C 949.189479 -58.247273 950.947292 -59.497273 955.048854 -59.497273 C 958.291042 -59.497273 961.298854 -58.98946 963.837917 -56.606648 L 963.837917 -63.442585 C 962.041042 -64.497273 959.345729 -65.39571 955.986354 -65.39571 C 950.205104 -65.39571 947.548854 -61.294148 941.845729 -61.294148 C 938.447292 -61.294148 935.595729 -62.153523 932.392604 -63.598835 C 936.845729 -64.848835 940.947292 -65.55196 944.892604 -69.497273 C 947.744167 -72.348835 948.095729 -74.692585 950.947292 -77.544148 C 953.291042 -79.848835 955.751979 -81.48946 959.150417 -81.64571 L 954.345729 -86.48946 C 952.392604 -85.942585 949.853542 -84.692585 947.548854 -82.348835 C 943.447292 -78.247273 944.501979 -73.442585 940.400417 -69.497273 C 937.900417 -67.192585 935.400417 -65.747273 932.041042 -64.341023 C 934.345729 -68.442585 936.650417 -71.841023 936.650417 -77.387898 C 936.650417 -81.48946 935.400417 -83.247273 935.400417 -87.348835 C 935.400417 -90.591023 935.947292 -93.598835 938.251979 -96.137898 L 931.455104 -96.137898 C 930.400417 -94.341023 929.501979 -91.64571 929.501979 -88.247273 C 929.501979 -82.544148 933.642604 -79.848835 933.642604 -74.14571 C 933.642604 -70.942585 932.744167 -68.091023 931.298854 -64.848835 C 930.087917 -69.14571 929.345729 -73.247273 925.400417 -77.192585 C 922.353542 -80.200398 920.400417 -80.55196 917.548854 -83.442585 C 915.244167 -85.747273 913.447292 -88.247273 913.447292 -91.64571 L 908.603542 -86.841023 C 909.150417 -84.887898 910.244167 -82.348835 912.705104 -79.848835 C 916.806667 -75.747273 921.650417 -76.80196 925.595729 -72.89571 C 928.095729 -70.39571 929.501979 -67.934773 930.751979 -64.497273 C 926.650417 -66.64571 923.251979 -69.14571 917.548854 -69.14571 C 913.447292 -69.14571 911.650417 -67.934773 907.587917 -67.934773 C 904.345729 -67.934773 901.298854 -68.442585 898.798854 -70.747273 Z M 898.798854 -70.747273 " transform="matrix(0.1,0,0,0.1,4.659177,46.047384)"/>
</g>
</svg>
